# xmcd CD database file
#
# Track frame offsets:
#	150
#	20412
#	34187
#	52737
#	75710
#	99530
#	122037
#	139780
#	153380
#	173342
#
# Disc length: 2565 seconds
#
# Revision: 0
# Processed by: cddbd v1.4PL0 Copyright (c) Steve Scherf et al.
# Submitted via: Feurio! 1.65 - http://www.feurio.com
#
DISCID=700a030a
DTITLE=Various Artist - Blues For A Barbecue
DYEAR=2001
DGENRE=
TTITLE0=Chuck St. Troy and The Bluesiana All- Stars - My Last Meal
TTITLE1=John Lee Hooker - One Bourbon, One Scotch, One Beer
TTITLE2=Finis Tasby - Drinking Bad Whiskey
TTITLE3=Bill Doggett - Honky Tonk
TTITLE4=Curtis Salagado - I'd Rather Be Blind
TTITLE5=Rufus Thomas - Big Fine Hunk A Woman
TTITLE6=Anders Osborne - Ho- Di- Ko- Di- Ya- La-ma- La
TTITLE7=Marcia Ball - Mama's Cooking
TTITLE8=Grady Champion - Wine and Woman
TTITLE9=Debbie Davies - Can't Live Like This No More
EXTD=Shanchie 
EXTT0=
EXTT1=
EXTT2=
EXTT3=
EXTT4=
EXTT5=
EXTT6=
EXTT7=
EXTT8=
EXTT9=
PLAYORDER=
